inDegrees=yes
name=ik_lifting_orientations
DataType=double
version=3
OpenSimVersion=4.5-2024-01-10-34fd6af
endheader
time	pelvis_tilt	pelvis_list	pelvis_rotation	pelvis_tx	pelvis_ty	pelvis_tz	hip_flexion_r	hip_adduction_r	hip_rotation_r	knee_angle_r	knee_angle_r_beta	ankle_angle_r	subtalar_angle_r	mtp_angle_r	hip_flexion_l	hip_adduction_l	hip_rotation_l	knee_angle_l	knee_angle_l_beta	ankle_angle_l	subtalar_angle_l	mtp_angle_l	lumbar_extension	lumbar_bending	lumbar_rotation	arm_flex_r	arm_add_r	arm_rot_r	elbow_flex_r	pro_sup_r	wrist_flex_r	wrist_dev_r	arm_flex_l	arm_add_l	arm_rot_l	elbow_flex_l	pro_sup_l	wrist_flex_l	wrist_dev_l
3.46	0.06812601836935503	0.4927689648161827	90.31591539448665	0	0.9400000003403366	0	44.87410826501061	-10.00059860584386	0	59.51318938131035	1.038701103066793	-5.000039921976188	0	0	44.87410826501061	-10.00059860584386	0	59.51318938131035	1.038701103066793	-5.000039921976188	0	0	0.05877630434469951	0.001158605006658812	0.06439080480942368	4.496638930392542	-22.86879852092276	-0.5969042210593272	60.03119357286383	-1.492037467836241	0	0	0	-13.46235171061757	0	75.0102270613951	1.491827198595852	0	0
3.47	0.06462004749445466	0.5096721633289201	90.32747368841937	0	0.9400000003403366	0	44.87415851550246	-10.00059776926116	0	59.51334168009076	1.038703761181958	-5.000039848901151	0	0	44.87415851550246	-10.00059776926116	0	59.51334168009076	1.038703761181958	-5.000039848901151	0	0	0.01835595896159512	-0.008772144240169767	0.02576740862495091	4.418607981505153	-22.24453296932001	-0.150790234378281	57.85713385830311	-1.491623324501926	0	0	0	-13.46266559007527	0	75.01022304942184	1.49141305525979	0	0
3.48	0.04787084404284918	0.503272487380353	90.27532833777478	0	0.9400000003403366	0	44.87419482299572	-10.00059716589638	0	59.51345181412074	1.038705683383399	-5.000039796226322	0	0	44.87419482299572	-10.00059716589638	0	59.51345181412074	1.038705683383399	-5.000039796226322	0	0	0.02706380465504598	-0.001876184803075681	0.0281516034895695	4.272673755529447	-21.87539783378975	-0.0931866352168098	56.87568619091701	-1.491323973139387	0	0	0	-13.46289254088353	0	75.01022015065035	1.491113703895992	0	0
3.49	0.05212847405273587	0.5227617679681464	90.30214945212103	0	0.9400000003403366	0	44.87425987722779	-10.0005960839028	0	59.51364887068459	1.038709122669251	-5.000039701773424	0	0	44.87425987722779	-10.0005960839028	0	59.51364887068459	1.038709122669251	-5.000039701773424	0	0	-0.007702700755190462	-0.001052125048428586	-0.004705305964026399	4.125891900338639	-21.2589062637397	0.276051557108755	54.7547153187505	-1.490787850180251	0	0	0	-13.46329882879763	0	75.01021495675413	1.490577580934604	0	0
3.5	0.05217311214241457	0.5228695540051698	90.30235412816265	0	0.9400000003403366	0	44.87432441253831	-10.00059501203102	0	59.51384439259592	1.038712535170364	-5.000039608257532	0	0	44.87432441253831	-10.00059501203102	0	59.51384439259592	1.038712535170364	-5.000039608257532	0	0	-0.007960323336606623	-0.0009896757505197967	-0.004531675348258725	4.003651683367133	-20.63038986473849	0.6659524352521774	52.52912805259317	-1.490255904177752	0	0	0	-13.4637020000128	0	75.01020980428829	1.490045634929865	0	0
3.51	0.04407537836635298	0.5039326196310835	90.27296279597937	0	0.9400000003403366	0	44.87437295882148	-10.00059420746972	0	59.51399160859388	1.03871510457424	-5.000039538111432	0	0	44.87437295882148	-10.00059420746972	0	59.51399160859388	1.03871510457424	-5.000039538111432	0	0	0.02150162284665821	-0.006080239347955327	0.02697871567228985	3.908995002440141	-19.98423517131802	1.043688625187057	50.27118794980039	-1.48985556856696	0	0	0	-13.46400552912255	0	75.01020592837808	1.489645299317391	0	0
3.52	0.07922284875138227	0.4569843166147885	90.33543241895654	0	0.9400000003403366	0	44.87442087808757	-10.00059341373001	0	59.5141368869999	1.038717640160757	-5.000039468931515	0	0	44.87442087808757	-10.00059341373001	0	59.5141368869999	1.038717640160757	-5.000039468931515	0	0	0.02045228981665659	-0.001167547526378436	0.02229474008972056	3.699664852924632	-19.17831891163322	1.300951019069146	48.43431550903891	-1.489460408053739	0	0	0	-13.46430512311068	0	75.01020210252859	1.489250138802511	0	0
3.53	0.0832102469033934	0.44825841016873	90.33286135455458	0	0.9400000003403366	0	44.87446243946863	-10.00059272621506	0	59.5142629438063	1.038719840267073	-5.00003940903764	0	0	44.87446243946863	-10.00059272621506	0	59.5142629438063	1.038719840267073	-5.00003940903764	0	0	0.03389558421400756	0.003128472363789781	0.03089910378892161	3.419327287151285	-18.31820124630236	1.587031424119955	46.74590668910246	-1.489117593799519	0	0	0	-13.46456507733249	0	75.01019878428934	1.488907324546851	0	0
3.54	0.1021409042802081	0.4611413848915551	90.45132267960416	0	0.9400000003403366	0	44.87450901430768	-10.00059195615164	0	59.51440417421242	1.038722305202664	-5.000039341972712	0	0	44.87450901430768	-10.00059195615164	0	59.51440417421242	1.038722305202664	-5.000039341972712	0	0	0.02051695730693038	-0.0004516825763858957	0.01979900388699498	3.139834646919515	-17.40174042405245	1.804276419021327	45.02347063857736	-1.48873343067805	0	0	0	-13.4648563758009	0	75.01019506577815	1.488523161423764	0	0
3.55	0.1372980451959989	0.4516301636799086	90.57380443571552	0	0.9400000003403366	0	44.87454420710558	-10.00059137537359	0	59.51451098879551	1.038724169468828	-5.000039291420876	0	0	44.87454420710558	-10.00059137537359	0	59.51451098879551	1.038724169468828	-5.000039291420876	0	0	0.0401373950885997	0.01133191877026784	0.03117980890905933	2.787965679417555	-16.48964390233817	1.944317685879808	43.41183213363595	-1.488443025860936	0	0	0	-13.46507665530397	0	75.01019225600322	1.488232756605429	0	0
3.56	0.1284328296237381	0.4584760969920559	90.57457948847015	0	0.9400000003403366	0	44.8745870683818	-10.00059066804452	0	59.51464100579425	1.038726438693539	-5.000039229865007	0	0	44.8745870683818	-10.00059066804452	0	59.51464100579425	1.038726438693539	-5.000039229865007	0	0	0.03029312899009108	0.004231352733334619	0.02490401156674992	2.54127336239756	-15.70255822642334	2.184098701995996	41.60956644540084	-1.488089393750637	0	0	0	-13.46534485453689	0	75.01018883398095	1.487879124493644	0	0
3.57	0.1299069260742964	0.4762525653757121	90.59068111547614	0	0.9400000003403366	0	44.87465330405121	-10.00058957470708	0	59.51484173373424	1.038729942056993	-5.000039134735884	0	0	44.87465330405121	-10.00058957470708	0	59.51484173373424	1.038729942056993	-5.000039134735884	0	0	-0.005479782584405585	0.0001570650090774597	-0.002374484836930501	2.402000862354767	-14.82944741944566	2.596658208706462	39.75036183909096	-1.48754305956953	0	0	0	-13.46575909024375	0	75.01018354575919	1.487332790310242	0	0
3.58	0.1570768494492359	0.4596533215517819	90.63861012720869	0	0.9400000003403366	0	44.87469095132448	-10.00058895502235	0	59.5149559964854	1.038731936318213	-5.000039080861029	0	0	44.87469095132448	-10.00058895502235	0	59.5149559964854	1.038731936318213	-5.000039080861029	0	0	0.03210296340931917	0.008127671234136149	0.02103864695040099	2.031842632348747	-13.99121987985344	2.648962060755459	38.14805048783559	-1.487232322827898	0	0	0	-13.46599482185763	0	75.0101805400202	1.487022053567297	0	0
3.59	0.1640207010739043	0.4018151760933558	90.69919072525312	0	0.9400000003403366	0	44.87473221409737	-10.0005882759744	0	59.51508118479603	1.038734121266419	-5.000039021838456	0	0	44.87473221409737	-10.0005882759744	0	59.51508118479603	1.038734121266419	-5.000039021838456	0	0	0.03034358923461949	0.002400412402772332	0.01916283657786279	1.879119375412503	-13.06557527074148	3.04048878801514	36.64893799535391	-1.48689177058975	0	0	0	-13.46625314900273	0	75.01017724562158	1.486681501327717	0	0
3.6	0.1957234214564452	0.4039746983830193	90.7568441078084	0	0.9400000003403366	0	44.87476857371399	-10.00058767833668	0	59.51519154279097	1.038736047376786	-5.000038969913527	0	0	44.87476857371399	-10.00058767833668	0	59.51519154279097	1.038736047376786	-5.000038969913527	0	0	0.03448434745125301	0.009480467541501484	0.01955498909227761	1.57893729738174	-12.16080796669177	3.356177471510636	35.38355958439378	-1.486591617163397	0	0	0	-13.46648087033814	0	75.0101743426884	1.486381347900104	0	0
3.61	0.1925681683748136	0.4041474391635398	90.75572207833609	0	0.9400000003403366	0	44.87480690490656	-10.00058704873181	0	59.51530788680017	1.038738077962812	-5.000038915228235	0	0	44.87480690490656	-10.00058704873181	0	59.51530788680017	1.038738077962812	-5.000038915228235	0	0	0.03516617840925776	0.00580324841009851	0.01995769091843271	1.415980394984492	-11.50080211022866	3.698578709089251	33.99316355599297	-1.486275165068442	0	0	0	-13.4667209665646	0	75.01017128234562	1.486064895803817	0	0
3.62	0.1888823292121644	0.4116951756778945	90.75885641840317	0	0.9400000003403366	0	44.8748487369275	-10.0005863618662	0	59.51543481837738	1.038740293336759	-5.000038855584903	0	0	44.8748487369275	-10.0005863618662	0	59.51543481837738	1.038740293336759	-5.000038855584903	0	0	0.02237960622899402	0.003222078282419282	0.01277292861222821	1.195478722776628	-10.83740588724489	4.040397274071262	32.65931864778974	-1.485929826256962	0	0	0	-13.46698296323335	0	75.01016794249854	1.485719556990882	0	0
3.63	0.186305753863739	0.4011528286644305	90.81614792486427	0	0.9400000003403366	0	44.87488946453125	-10.00058569382264	0	59.51555843107808	1.038742450785383	-5.000038797598198	0	0	44.87488946453125	-10.00058569382264	0	59.51555843107808	1.038742450785383	-5.000038797598198	0	0	0.02999447393761417	-0.000503926835542645	0.01503431473528184	1.045609442064499	-10.19613172362033	4.255607790681738	31.27208208896636	-1.485593547586343	0	0	0	-13.46723811728964	0	75.01016469082751	1.485383278318845	0	0
3.64	0.2185431832226803	0.4054179049111218	90.87343774451973	0	0.9400000003403366	0	44.87492619079618	-10.00058509208557	0	59.51566993741633	1.038744396938122	-5.000038745387714	0	0	44.87492619079618	-10.00058509208557	0	59.51566993741633	1.038744396938122	-5.000038745387714	0	0	0.03416378015372623	0.007410487411302065	0.01558706756333786	0.8678277638511184	-9.572082198996068	4.492852444438911	30.02432653844416	-1.485290246340549	0	0	0	-13.46746828342725	0	75.01016175862131	1.485079977071778	0	0
3.65	0.2255616844211997	0.3486747761792441	90.93567457181926	0	0.9400000003403366	0	44.87496922548753	-10.00058438704104	0	59.51580052837997	1.038746676180411	-5.000038684226204	0	0	44.87496922548753	-10.00058438704104	0	59.51580052837997	1.038746676180411	-5.000038684226204	0	0	0.01806631446781684	0.003401124594727086	0.008708532517084868	0.8072758518078462	-8.96978297929614	4.740759733708385	28.82634505141624	-1.484934893661101	0	0	0	-13.46773791322086	0	75.01015832275357	1.48472462439084	0	0
3.66	0.2334330011765417	0.3411163750148762	90.9338086057587	0	0.9400000003403366	0	44.87500471057686	-10.00058380666286	0	59.51590829459946	1.038748557055764	-5.000038633904997	0	0	44.87500471057686	-10.00058380666286	0	59.51590829459946	1.038748557055764	-5.000038633904997	0	0	0.03371211663453118	0.01123461376990065	0.01431993514944254	0.6962830121367529	-8.483994809966115	4.96987783559393	27.67532196903889	-1.48464177150041	0	0	0	-13.46796038998024	0	75.01015548964217	1.484431502228916	0	0
3.67	0.2612481874419044	0.3419845992098806	90.98944422398276	0	0.9400000003403366	0	44.87503694301137	-10.00058328001543	0	59.51600621646728	1.038750266114767	-5.000038588258307	0	0	44.87503694301137	-10.00058328001543	0	59.51600621646728	1.038750266114767	-5.000038588258307	0	0	0.03795878073923274	0.01575774335459921	0.01433371698312956	0.5822050734942452	-7.982301299358568	5.174569314788898	26.64361051682121	-1.484375466935797	0	0	0	-13.46816254140831	0	75.01015291622103	1.484165197663177	0	0
3.68	0.252657634350308	0.3546959369824544	90.9923274207156	0	0.9400000003403366	0	44.87507085127618	-10.00058272624557	0	59.51610921638576	1.038752063802474	-5.00003854027301	0	0	44.87507085127618	-10.00058272624557	0	59.51610921638576	1.038752063802474	-5.00003854027301	0	0	0.01855874534349083	0.006100508242193537	0.00784329601937004	0.5774715454563972	-7.750129748933499	5.333366722011733	26.13017302417013	-1.484095313088656	0	0	0	-13.46837520358598	0	75.01015020900248	1.483885043814858	0	0
3.69	0.2540635472493442	0.3511378070751197	90.99128870450095	0	0.9400000003403366	0	44.87510630461537	-10.00058214747623	0	59.51621689207153	1.038753943097715	-5.000038490133343	0	0	44.87510630461537	-10.00058214747623	0	59.51621689207153	1.038753943097715	-5.000038490133343	0	0	0.02438783918811428	0.009086721839952535	0.009355519642304031	0.4890594104562052	-7.394440553305184	5.50449252270799	25.26542164678712	-1.483802394430611	0	0	0	-13.46859755035662	0	75.01014737842596	1.483592125155583	0	0
